<svg width="25" height="25" viewBox="0 0 25 25" fill="none" xmlns="http://www.w3.org/2000/svg">
  <mask id="path-1-inside-1_306_12" fill="white">
    <path
      d="M23.5517 15.1459L24.972 6.81262C25.0175 6.54575 25.0074 6.27149 24.9426 6.00923C24.8778 5.74696 24.7597 5.50309 24.5968 5.29485C24.4338 5.08661 24.23 4.91909 23.9997 4.80413C23.7694 4.68917 23.5183 4.62958 23.264 4.62957H5.06444L4.53455 1.5206C4.462 1.09383 4.25124 0.707785 3.93906 0.429867C3.62689 0.15195 3.23313 -0.000191933 2.82652 1.81721e-07H0.868002C0.637794 1.81721e-07 0.417014 0.0975514 0.254232 0.271194C0.09145 0.444836 0 0.680346 0 0.925913C0 1.17148 0.09145 1.40699 0.254232 1.58063C0.417014 1.75428 0.637794 1.85183 0.868002 1.85183H2.82652L5.72371 18.8495C5.74962 18.9998 5.79287 19.1462 5.8525 19.2852C5.41911 19.6758 5.09695 20.1881 4.92253 20.764C4.74811 21.34 4.7284 21.9565 4.86563 22.5437C5.00287 23.131 5.29156 23.6655 5.699 24.0867C6.10644 24.5079 6.61632 24.7989 7.17088 24.9268C7.72544 25.0547 8.3025 25.0144 8.83666 24.8103C9.37082 24.6063 9.84072 24.2468 10.1931 23.7724C10.5455 23.2981 10.7663 22.728 10.8305 22.1266C10.8947 21.5253 10.7997 20.9168 10.5563 20.3701H18.0878C17.8057 21.0045 17.7245 21.7194 17.8563 22.4074C17.988 23.0953 18.3257 23.7189 18.8185 24.1844C19.3112 24.6499 19.9324 24.9321 20.5885 24.9884C21.2446 25.0448 21.9001 24.8724 22.4563 24.497C23.0126 24.1216 23.4395 23.5637 23.6728 22.9072C23.9061 22.2506 23.9332 21.531 23.75 20.8566C23.5668 20.1823 23.1832 19.5896 22.657 19.1679C22.1307 18.7462 21.4903 18.5182 20.8321 18.5183H7.43174L7.11609 16.6664H21.8436C22.2502 16.6666 22.644 16.5145 22.9562 16.2366C23.2683 15.9587 23.4791 15.5727 23.5517 15.1459ZM9.11403 21.759C9.11403 22.0337 9.03767 22.3022 8.8946 22.5306C8.75153 22.759 8.54819 22.937 8.31028 23.0421C8.07237 23.1472 7.81058 23.1747 7.55801 23.1211C7.30545 23.0676 7.07345 22.9353 6.89137 22.741C6.70928 22.5468 6.58527 22.2993 6.53504 22.0299C6.4848 21.7605 6.51058 21.4812 6.60913 21.2275C6.70767 20.9737 6.87455 20.7568 7.08867 20.6042C7.30278 20.4515 7.55451 20.3701 7.81202 20.3701C8.15722 20.3705 8.48816 20.517 8.73225 20.7773C8.97634 21.0377 9.11364 21.3907 9.11403 21.759ZM22.1341 21.759C22.1341 22.0337 22.0577 22.3022 21.9146 22.5306C21.7716 22.759 21.5682 22.937 21.3303 23.0421C21.0924 23.1472 20.8306 23.1747 20.5781 23.1211C20.3255 23.0676 20.0935 22.9353 19.9114 22.741C19.7293 22.5468 19.6053 22.2993 19.5551 22.0299C19.5048 21.7605 19.5306 21.4812 19.6292 21.2275C19.7277 20.9737 19.8946 20.7568 20.1087 20.6042C20.3228 20.4515 20.5745 20.3701 20.8321 20.3701C21.1773 20.3705 21.5082 20.517 21.7523 20.7773C21.9964 21.0377 22.1337 21.3907 22.1341 21.759ZM5.38009 6.48139H23.264L21.8436 14.8146H6.80045L5.38009 6.48139Z"/>
  </mask>
  <path
    d="M23.5517 15.1459L21.5801 14.8098L21.58 14.8106L23.5517 15.1459ZM24.972 6.81262L26.9436 7.14866L26.9436 7.1485L24.972 6.81262ZM23.264 4.62957L23.2641 2.62957H23.264V4.62957ZM5.06444 4.62957L3.09287 4.9656C3.25667 5.92664 4.08954 6.62957 5.06444 6.62957L5.06444 4.62957ZM4.53455 1.5206L2.56284 1.85581L2.56298 1.85663L4.53455 1.5206ZM2.82652 1.81721e-07L2.82652 2L2.82746 2L2.82652 1.81721e-07ZM0.868002 1.81721e-07L0.868002 -2L0.868002 1.81721e-07ZM0 0.925913L-2 0.925913L0 0.925913ZM0.868002 1.85183V3.85183V1.85183ZM2.82652 1.85183L4.79808 1.51578C4.63428 0.554741 3.80142 -0.148173 2.82652 -0.148173V1.85183ZM5.72371 18.8495L3.75214 19.1855L3.75275 19.1891L5.72371 18.8495ZM5.8525 19.2852L7.19148 20.7709C7.82733 20.1978 8.02798 19.2836 7.69058 18.4969L5.8525 19.2852ZM10.5563 20.3701V18.3701C9.87907 18.3701 9.24783 18.7128 8.87898 19.2808C8.51012 19.8488 8.45377 20.5649 8.72923 21.1836L10.5563 20.3701ZM18.0878 20.3701L19.9153 21.1826C20.1903 20.5639 20.1337 19.8481 19.7648 19.2804C19.3959 18.7126 18.7648 18.3701 18.0878 18.3701V20.3701ZM20.8321 18.5183L20.8321 20.5183L20.8323 20.5183L20.8321 18.5183ZM7.43174 18.5183L5.46018 18.8543C5.62399 19.8154 6.45685 20.5183 7.43174 20.5183V18.5183ZM7.11609 16.6664V14.6664C6.5269 14.6664 5.96769 14.9262 5.58768 15.3765C5.20767 15.8268 5.04553 16.4217 5.14453 17.0025L7.11609 16.6664ZM21.8436 16.6664L21.8446 14.6664H21.8436V16.6664ZM22.9562 16.2366L24.286 17.7304L22.9562 16.2366ZM9.11403 21.759L11.114 21.759L11.114 21.7569L9.11403 21.759ZM7.81202 20.3701L7.81441 18.3701H7.81202V20.3701ZM22.1341 21.759L24.1341 21.759L24.1341 21.7569L22.1341 21.759ZM20.8321 20.3701L20.8344 18.3701H20.8321V20.3701ZM5.38009 6.48139V4.48139C4.7909 4.48139 4.23169 4.74119 3.85168 5.19145C3.47167 5.64171 3.30953 6.23662 3.40852 6.81744L5.38009 6.48139ZM23.264 6.48139L25.2356 6.81744C25.3346 6.23662 25.1724 5.64171 24.7924 5.19145C24.4124 4.74119 23.8532 4.48139 23.264 4.48139V6.48139ZM21.8436 14.8146V16.8146C22.8185 16.8146 23.6514 16.1117 23.8152 15.1507L21.8436 14.8146ZM6.80045 14.8146L4.82888 15.1507C4.99269 16.1117 5.82555 16.8146 6.80045 16.8146V14.8146ZM25.5232 15.4819L26.9436 7.14866L23.0005 6.47657L21.5801 14.8098L25.5232 15.4819ZM26.9436 7.1485C27.0352 6.61106 27.0151 6.05904 26.8841 5.52921L23.0011 6.48925C23.0003 6.48618 23.0001 6.48395 23 6.4824C23 6.48084 23 6.47903 23.0004 6.47673L26.9436 7.1485ZM26.8841 5.52921C26.7531 4.99924 26.5125 4.49775 26.1719 4.06243L23.0216 6.52727C23.0069 6.50843 23.0024 6.49468 23.0011 6.48925L26.8841 5.52921ZM26.1719 4.06243C25.831 3.62673 25.3965 3.26603 24.893 3.01468L23.1065 6.59358C23.0636 6.57216 23.0367 6.5465 23.0216 6.52727L26.1719 4.06243ZM24.893 3.01468C24.3888 2.76304 23.8323 2.6296 23.2641 2.62957L23.2639 6.62957C23.2042 6.62956 23.15 6.61531 23.1065 6.59358L24.893 3.01468ZM23.264 2.62957H5.06444V6.62957H23.264V2.62957ZM7.03601 4.29353L6.50612 1.18457L2.56298 1.85663L3.09287 4.9656L7.03601 4.29353ZM6.50626 1.18539C6.3605 0.328046 5.93333 -0.472449 5.26894 -1.06393L2.60919 1.92367C2.56915 1.88802 2.56349 1.8596 2.56285 1.85581L6.50626 1.18539ZM5.26894 -1.06393C4.60152 -1.6581 3.73773 -2.00043 2.82557 -2L2.82746 2C2.72853 2.00005 2.65225 1.962 2.60919 1.92367L5.26894 -1.06393ZM2.82652 -2H0.868002V2H2.82652V-2ZM0.868002 -2C0.0641511 -2 -0.678467 -1.65818 -1.20487 -1.09665L1.71334 1.63904C1.51249 1.85329 1.21144 2 0.868002 2L0.868002 -2ZM-1.20487 -1.09665C-1.72718 -0.539499 -2 0.190097 -2 0.925913L2 0.925913C2 1.17059 1.91008 1.42917 1.71334 1.63904L-1.20487 -1.09665ZM-2 0.925913C-2 1.66173 -1.72718 2.39133 -1.20487 2.94848L1.71334 0.212785C1.91008 0.422655 2 0.681232 2 0.925913L-2 0.925913ZM-1.20487 2.94848C-0.678467 3.51001 0.0641512 3.85183 0.868002 3.85183L0.868002 -0.148173C1.21144 -0.148173 1.51249 -0.00145867 1.71334 0.212785L-1.20487 2.94848ZM0.868002 3.85183H2.82652V-0.148173H0.868002V3.85183ZM0.854952 2.18787L3.75214 19.1855L7.69528 18.5134L4.79808 1.51578L0.854952 2.18787ZM3.75275 19.1891C3.805 19.4924 3.89256 19.7894 4.01442 20.0736L7.69058 18.4969C7.69319 18.503 7.69423 18.5073 7.69467 18.5099L3.75275 19.1891ZM4.51352 17.7996C3.80068 18.4421 3.28495 19.2712 3.00839 20.1843L6.83667 21.3438C6.90895 21.1051 7.03754 20.9096 7.19148 20.7709L4.51352 17.7996ZM3.00839 20.1843C2.73196 21.0971 2.70116 22.0705 2.9181 22.9989L6.81316 22.0886C6.75564 21.8425 6.76425 21.5829 6.83667 21.3438L3.00839 20.1843ZM2.9181 22.9989C3.13513 23.9275 3.59503 24.7883 4.2615 25.4772L7.13649 22.6962C6.9881 22.5427 6.87061 22.3344 6.81316 22.0886L2.9181 22.9989ZM4.2615 25.4772C4.92904 26.1673 5.77887 26.6583 6.72141 26.8757L7.62035 22.978C7.45377 22.9396 7.28383 22.8485 7.13649 22.6962L4.2615 25.4772ZM6.72141 26.8757C7.66501 27.0933 8.64691 27.0238 9.5503 26.6787L8.12301 22.942C7.95809 23.005 7.78587 23.0162 7.62035 22.978L6.72141 26.8757ZM9.5503 26.6787C10.4523 26.3342 11.2272 25.7342 11.7985 24.9652L8.58771 22.5797C8.45425 22.7593 8.28938 22.8785 8.12301 22.942L9.5503 26.6787ZM11.7985 24.9652C12.3691 24.1972 12.7181 23.2867 12.8192 22.3389L8.84183 21.9143C8.81462 22.1692 8.72192 22.3991 8.58771 22.5797L11.7985 24.9652ZM12.8192 22.3389C12.9204 21.3913 12.7716 20.4286 12.3834 19.5566L8.72923 21.1836C8.82782 21.405 8.86905 21.6593 8.84183 21.9143L12.8192 22.3389ZM10.5563 22.3701H18.0878V18.3701H10.5563V22.3701ZM16.2602 19.5576C15.8108 20.5685 15.6841 21.6986 15.892 22.7837L19.8205 22.031C19.7648 21.7403 19.8006 21.4404 19.9153 21.1826L16.2602 19.5576ZM15.892 22.7837C16.0999 23.8692 16.6365 24.8744 17.4451 25.6383L20.1919 22.7305C20.015 22.5634 19.8761 22.3213 19.8205 22.031L15.892 22.7837ZM17.4451 25.6383C18.2557 26.4041 19.297 26.8848 20.4173 26.9811L20.7597 22.9958C20.5678 22.9793 20.3667 22.8957 20.1919 22.7305L17.4451 25.6383ZM20.4173 26.9811C21.5383 27.0774 22.6476 26.7807 23.575 26.1549L21.3376 22.8391C21.1526 22.964 20.9508 23.0122 20.7597 22.9958L20.4173 26.9811ZM23.575 26.1549C24.4999 25.5308 25.1868 24.6197 25.5574 23.5769L21.7883 22.2375C21.6922 22.5078 21.5253 22.7125 21.3376 22.8391L23.575 26.1549ZM25.5574 23.5769C25.9276 22.535 25.9698 21.3988 25.6801 20.3323L21.82 21.381C21.8967 21.6633 21.8847 21.9662 21.7883 22.2375L25.5574 23.5769ZM25.6801 20.3323C25.3901 19.2651 24.7769 18.3038 23.9077 17.6072L21.4063 20.7286C21.5895 20.8754 21.7435 21.0994 21.82 21.381L25.6801 20.3323ZM23.9077 17.6072C23.036 16.9086 21.9568 16.5181 20.8318 16.5183L20.8323 20.5183C21.0237 20.5182 21.2254 20.5837 21.4063 20.7286L23.9077 17.6072ZM20.8321 16.5183H7.43174V20.5183H20.8321V16.5183ZM9.40331 18.1822L9.08766 16.3304L5.14453 17.0025L5.46018 18.8543L9.40331 18.1822ZM7.11609 18.6664H21.8436V14.6664H7.11609V18.6664ZM21.8427 18.6664C22.7548 18.6669 23.6186 18.3246 24.286 17.7304L21.6263 14.7428C21.6694 14.7044 21.7457 14.6664 21.8446 14.6664L21.8427 18.6664ZM24.286 17.7304C24.9504 17.139 25.3776 16.3385 25.5234 15.4812L21.58 14.8106C21.5806 14.8068 21.5863 14.7784 21.6263 14.7428L24.286 17.7304ZM7.11403 21.759C7.11403 21.6658 7.13937 21.5651 7.19966 21.4689L10.5895 23.5923C10.936 23.0392 11.114 22.4015 11.114 21.759H7.11403ZM7.19966 21.4689C7.26065 21.3715 7.36049 21.2752 7.50197 21.2127L9.11859 24.8715C9.73589 24.5987 10.2424 24.1464 10.5895 23.5923L7.19966 21.4689ZM7.50197 21.2127C7.64533 21.1494 7.8114 21.1304 7.97314 21.1647L7.14289 25.0776C7.80975 25.2191 8.4994 25.1451 9.11859 24.8715L7.50197 21.2127ZM7.97314 21.1647C8.13364 21.1988 8.26221 21.279 8.35047 21.3732L5.43226 24.1089C5.8847 24.5915 6.47726 24.9363 7.14289 25.0776L7.97314 21.1647ZM8.35047 21.3732C8.43746 21.466 8.48357 21.569 8.50115 21.6633L4.56893 22.3965C4.68698 23.0296 4.9811 23.6276 5.43226 24.1089L8.35047 21.3732ZM8.50115 21.6633C8.51866 21.7572 8.51064 21.8558 8.4735 21.9514L4.74475 20.5035C4.51053 21.1067 4.45094 21.7638 4.56893 22.3965L8.50115 21.6633ZM8.4735 21.9514C8.43609 22.0478 8.36482 22.1506 8.2495 22.2328L5.92784 18.9755C5.38429 19.3629 4.97925 19.8996 4.74475 20.5035L8.4735 21.9514ZM8.2495 22.2328C8.13237 22.3163 7.97995 22.3701 7.81202 22.3701V18.3701C7.12907 18.3701 6.4732 18.5868 5.92784 18.9755L8.2495 22.2328ZM7.80964 22.3701C7.58206 22.3698 7.39214 22.2721 7.27315 22.1452L10.1914 19.4095C9.58418 18.7618 8.73238 18.3712 7.81441 18.3701L7.80964 22.3701ZM7.27315 22.1452C7.15822 22.0226 7.11415 21.8824 7.11403 21.7611L11.114 21.7569C11.1131 20.8991 10.7945 20.0528 10.1914 19.4095L7.27315 22.1452ZM20.1341 21.759C20.1341 21.6658 20.1594 21.5651 20.2197 21.4689L23.6096 23.5923C23.956 23.0392 24.1341 22.4015 24.1341 21.759H20.1341ZM20.2197 21.4689C20.2807 21.3715 20.3805 21.2752 20.522 21.2127L22.1386 24.8715C22.7559 24.5987 23.2625 24.1464 23.6096 23.5923L20.2197 21.4689ZM20.522 21.2127C20.6654 21.1494 20.8314 21.1304 20.9932 21.1647L20.1629 25.0776C20.8298 25.2191 21.5194 25.1451 22.1386 24.8715L20.522 21.2127ZM20.9932 21.1647C21.1537 21.1988 21.2822 21.279 21.3705 21.3732L18.4523 24.1089C18.9047 24.5915 19.4973 24.9363 20.1629 25.0776L20.9932 21.1647ZM21.3705 21.3732C21.4575 21.466 21.5036 21.569 21.5212 21.6633L17.589 22.3965C17.707 23.0296 18.0011 23.6276 18.4523 24.1089L21.3705 21.3732ZM21.5212 21.6633C21.5387 21.7572 21.5307 21.8558 21.4935 21.9514L17.7648 20.5035C17.5306 21.1067 17.471 21.7638 17.589 22.3965L21.5212 21.6633ZM21.4935 21.9514C21.4561 22.0478 21.3849 22.1506 21.2695 22.2328L18.9479 18.9755C18.4043 19.3629 17.9993 19.8996 17.7648 20.5035L21.4935 21.9514ZM21.2695 22.2328C21.1524 22.3163 21 22.3701 20.8321 22.3701V18.3701C20.1491 18.3701 19.4932 18.5868 18.9479 18.9755L21.2695 22.2328ZM20.8297 22.3701C20.6021 22.3698 20.4122 22.2721 20.2932 22.1452L23.2114 19.4095C22.6042 18.7618 21.7524 18.3712 20.8344 18.3701L20.8297 22.3701ZM20.2932 22.1452C20.1783 22.0226 20.1342 21.8824 20.1341 21.7611L24.1341 21.7569C24.1332 20.8991 23.8145 20.0528 23.2114 19.4095L20.2932 22.1452ZM5.38009 8.48139H23.264V4.48139H5.38009V8.48139ZM21.2924 6.14535L19.8721 14.4786L23.8152 15.1507L25.2356 6.81744L21.2924 6.14535ZM21.8436 12.8146H6.80045V16.8146H21.8436V12.8146ZM8.77201 14.4786L7.35166 6.14535L3.40852 6.81744L4.82888 15.1507L8.77201 14.4786Z"
    fill="#1B3764" mask="url(#path-1-inside-1_306_12)"/>
</svg>
