<svg width="35" height="35" viewBox="0 0 35 35" fill="none" xmlns="http://www.w3.org/2000/svg">
  <path
    d="M31.9865 21.0362L31.9865 21.0366C31.9215 21.4188 31.7346 21.752 31.4737 21.9843C31.2143 22.2153 30.898 22.3332 30.5816 22.333H30.5811H9.96253C9.66794 22.333 9.38833 22.4629 9.19832 22.688C9.00832 22.9132 8.92725 23.2106 8.97675 23.501L9.41866 26.0936C9.50056 26.5741 9.91699 26.9256 10.4044 26.9256H29.1649H29.165C29.8531 26.9255 30.5303 27.1634 31.0944 27.6154C31.6596 28.0684 32.0819 28.7138 32.285 29.4615C32.4882 30.2096 32.4579 31.0087 32.1997 31.7352C31.9417 32.4612 31.474 33.0657 30.8795 33.4669C30.2864 33.8671 29.5955 34.0464 28.9095 33.9875C28.2231 33.9285 27.5635 33.6328 27.0326 33.1312C26.5006 32.6287 26.1273 31.9464 25.9809 31.1821C25.8344 30.4176 25.9255 29.6243 26.2366 28.9244C26.3742 28.615 26.3458 28.2571 26.1614 27.9733C25.9769 27.6894 25.6614 27.5181 25.3229 27.5181H14.7788C14.4402 27.5181 14.1246 27.6895 13.9402 27.9735C13.7557 28.2575 13.7276 28.6155 13.8653 28.9249C14.1337 29.5276 14.2398 30.2024 14.1684 30.8711C14.097 31.5398 13.8519 32.1678 13.4677 32.685C13.0838 33.2017 12.5784 33.5849 12.0145 33.8003C11.4513 34.0154 10.8458 34.0573 10.264 33.9231C9.68158 33.7888 9.13771 33.4813 8.69735 33.0261C8.25645 32.5703 7.93789 31.9851 7.78565 31.3337C7.63338 30.6821 7.65542 29.9974 7.84861 29.3595C8.04173 28.7219 8.39597 28.1631 8.86299 27.7421C9.18091 27.4556 9.28124 26.9985 9.11254 26.6052C9.06028 26.4833 9.02191 26.354 8.9988 26.2202C8.99876 26.22 8.99872 26.2197 8.99867 26.2195L4.94291 2.42453C4.861 1.94401 4.44457 1.59256 3.95712 1.59256H1.2152C1.17973 1.59256 1.13156 1.57812 1.08548 1.52896C1.03735 1.47762 1 1.39495 1 1.29628C1 1.19761 1.03735 1.11494 1.08548 1.0636C1.13156 1.01444 1.17973 1 1.2152 1L3.95712 1L3.9576 1C4.27408 0.999851 4.59032 1.11776 4.84975 1.34871C5.11069 1.58102 5.29754 1.91424 5.36252 2.29645L5.36259 2.29686L6.10444 6.64941C6.18634 7.12993 6.60277 7.48139 7.09022 7.48139H32.5695C32.7685 7.4814 32.9675 7.52791 33.153 7.62051C33.3388 7.71326 33.5088 7.8512 33.6479 8.029C33.7872 8.20699 33.8912 8.4196 33.9489 8.65293C34.0066 8.88629 34.0156 9.13135 33.975 9.36964C33.975 9.36967 33.975 9.36969 33.975 9.36972L31.9865 21.0362ZM13.7596 30.4625L13.7596 30.4615C13.7588 29.7012 13.4759 28.9603 12.9547 28.4043C12.4314 27.8462 11.7077 27.519 10.938 27.5181H10.9368C10.3636 27.5181 9.8091 27.6998 9.34372 28.0315C8.87924 28.3626 8.52653 28.8261 8.32059 29.3565C8.11479 29.8865 8.06179 30.4663 8.166 31.0252C8.27023 31.5842 8.5289 32.1059 8.91836 32.5214C9.30846 32.9375 9.81353 33.229 10.3737 33.3478C10.9344 33.4668 11.5148 33.405 12.0385 33.1736C12.5613 32.9427 12.9976 32.5563 13.2999 32.0736C13.6019 31.5916 13.7596 31.0311 13.7596 30.4625ZM31.9877 30.4625L31.9877 30.4615C31.9869 29.7012 31.704 28.9603 31.1828 28.4043C30.6595 27.8462 29.9357 27.519 29.1661 27.5181H29.1649C28.5916 27.5181 28.0372 27.6998 27.5718 28.0315C27.1073 28.3626 26.7546 28.8261 26.5486 29.3565C26.3428 29.8865 26.2898 30.4663 26.394 31.0252C26.4983 31.5842 26.757 32.1059 27.1464 32.5214C27.5365 32.9375 28.0416 33.229 28.6017 33.3478C29.1624 33.4668 29.7429 33.405 30.2666 33.1736C30.7894 32.9427 31.2256 32.5563 31.528 32.0736C31.8299 31.5916 31.9877 31.0311 31.9877 30.4625ZM7.53213 8.07395C7.23753 8.07395 6.95792 8.20385 6.76792 8.42898C6.57791 8.65411 6.49684 8.95156 6.54634 9.24197L8.53484 20.9085C8.61675 21.389 9.03318 21.7405 9.52063 21.7405H30.5811C31.0685 21.7405 31.485 21.389 31.5669 20.9085L33.5554 9.24197C33.6049 8.95156 33.5238 8.65411 33.3338 8.42898C33.1438 8.20385 32.8642 8.07395 32.5696 8.07395H7.53213Z"
    stroke="white" stroke-width="2" stroke-linejoin="round"/>
</svg>
