<svg width="15" height="15" viewBox="0 0 15 15" fill="none" xmlns="http://www.w3.org/2000/svg">
  <path
    d="M11.5637 0.421456C11.5637 0.310985 11.5198 0.205039 11.4417 0.126925C11.3636 0.0488101 11.2576 0.00492573 11.1472 0.00492573H9.0645C8.01578 -0.0473147 6.98902 0.317649 6.20854 1.02008C5.42807 1.7225 4.95734 2.70529 4.8992 3.75369V6.00296H2.81655C2.70608 6.00296 2.60014 6.04684 2.52202 6.12495C2.44391 6.20307 2.40002 6.30901 2.40002 6.41948V8.58544C2.40002 8.69591 2.44391 8.80186 2.52202 8.87997C2.60014 8.95809 2.70608 9.00197 2.81655 9.00197H4.8992V14.5835C4.8992 14.6939 4.94309 14.7999 5.0212 14.878C5.09932 14.9561 5.20526 15 5.31573 15H7.81491C7.92538 15 8.03133 14.9561 8.10944 14.878C8.18756 14.7999 8.23144 14.6939 8.23144 14.5835V9.00197H10.4141C10.5067 9.0033 10.5971 8.97371 10.671 8.91789C10.745 8.86207 10.7982 8.78319 10.8223 8.69374L11.4221 6.52778C11.4386 6.46624 11.4409 6.40171 11.4286 6.33917C11.4163 6.27663 11.3898 6.21774 11.3512 6.16704C11.3126 6.11635 11.2628 6.07519 11.2058 6.04674C11.1487 6.01829 11.0859 6.00331 11.0222 6.00296H8.23144V3.75369C8.25216 3.54749 8.349 3.35642 8.50304 3.21778C8.65708 3.07914 8.85727 3.0029 9.0645 3.00394H11.1472C11.2576 3.00394 11.3636 2.96006 11.4417 2.88194C11.5198 2.80383 11.5637 2.69788 11.5637 2.58741V0.421456Z"
    fill="white"/>
</svg>
