<svg width="15" height="15" viewBox="0 0 15 15" fill="none" xmlns="http://www.w3.org/2000/svg">
  <path
    d="M7.5 0C5.46115 0 5.20706 0.00984498 4.40914 0.0435992C3.60795 0.0829791 3.06601 0.207213 2.58782 0.392862C2.09464 0.586011 1.67458 0.842449 1.25969 1.25969C0.84198 1.67458 0.583198 2.09464 0.392862 2.58782C0.207213 3.06601 0.0829791 3.60795 0.0435992 4.40914C0.00750094 5.20753 0 5.46115 0 7.5C0 9.53885 0.00984498 9.79294 0.0435992 10.5909C0.0829791 11.3897 0.207213 11.934 0.392862 12.4122C0.586011 12.9054 0.842449 13.3254 1.25969 13.7403C1.67458 14.158 2.09464 14.4168 2.58782 14.6071C3.06601 14.7904 3.6103 14.917 4.40914 14.9564C5.20753 14.9925 5.46115 15 7.5 15C9.53885 15 9.79294 14.9902 10.5909 14.9564C11.3897 14.917 11.934 14.79 12.4122 14.6071C12.9054 14.414 13.3254 14.1576 13.7403 13.7403C14.158 13.3254 14.4168 12.9077 14.6071 12.4122C14.7904 11.934 14.917 11.3897 14.9564 10.5909C14.9925 9.79247 15 9.53885 15 7.5C15 5.46115 14.9902 5.20706 14.9564 4.40914C14.917 3.61029 14.79 3.0632 14.6071 2.58782C14.414 2.09464 14.1576 1.67458 13.7403 1.25969C13.3254 0.84198 12.9077 0.583198 12.4122 0.392862C11.934 0.207213 11.3897 0.0829791 10.5909 0.0435992C9.79247 0.00750094 9.53885 0 7.5 0ZM7.5 1.35017C9.50228 1.35017 9.74137 1.36001 10.5327 1.39377C11.2627 1.42799 11.6602 1.54988 11.9241 1.65302C12.2762 1.78944 12.5223 1.95071 12.7886 2.21418C13.0498 2.47531 13.211 2.72425 13.3474 3.07632C13.4506 3.34026 13.5725 3.73781 13.6067 4.46775C13.6405 5.25909 13.6503 5.49866 13.6503 7.50047C13.6503 9.50228 13.6405 9.74184 13.6039 10.5332C13.5645 11.2631 13.4426 11.6607 13.3399 11.9246C13.1979 12.2767 13.0394 12.5228 12.7778 12.7891C12.5139 13.0502 12.2626 13.2115 11.9134 13.3479C11.6527 13.4511 11.2495 13.5729 10.5168 13.6072C9.72121 13.6409 9.48681 13.6508 7.47937 13.6508C5.47193 13.6508 5.238 13.6409 4.44149 13.6044C3.71156 13.565 3.30885 13.4431 3.04491 13.3404C2.68862 13.1984 2.44437 13.0399 2.18277 12.7783C1.91883 12.5144 1.751 12.2631 1.62161 11.9138C1.5166 11.6532 1.39658 11.25 1.35767 10.5173C1.33095 9.73106 1.31829 9.48728 1.31829 7.48922C1.31829 5.49209 1.33095 5.24784 1.35767 4.45181C1.39658 3.71906 1.5166 3.31682 1.62161 3.05523C1.751 2.69846 1.9193 2.45468 2.18277 2.19074C2.4439 1.92962 2.68862 1.76085 3.04491 1.62864C3.30885 1.52597 3.70171 1.40408 4.43446 1.36751C5.23003 1.33892 5.46443 1.3286 7.46906 1.3286L7.5 1.35017ZM7.5 3.65061C5.37114 3.65061 3.64968 5.37442 3.64968 7.50094C3.64968 9.6298 5.37348 11.3513 7.5 11.3513C9.62886 11.3513 11.3503 9.62745 11.3503 7.50094C11.3503 5.37208 9.62652 3.65061 7.5 3.65061ZM7.5 10.0011C6.11795 10.0011 4.99984 8.88299 4.99984 7.50094C4.99984 6.11889 6.11795 5.00078 7.5 5.00078C8.88205 5.00078 10.0002 6.11889 10.0002 7.50094C10.0002 8.88299 8.88205 10.0011 7.5 10.0011ZM12.4056 3.49684C12.4056 3.99519 12.0001 4.39742 11.5041 4.39742C11.0058 4.39742 10.6035 3.99472 10.6035 3.49684C10.6035 3.00131 11.0086 2.59814 11.5041 2.59814C11.9996 2.59814 12.4056 3.00131 12.4056 3.49684Z"
    fill="white"/>
</svg>
