<svg width="15" height="15" viewBox="0 0 15 15" fill="none" xmlns="http://www.w3.org/2000/svg">
  <path d="M0.227295 5.30762H2.95453V14.9999H0.227295V5.30762Z" fill="white"/>
  <path
    d="M1.59089 3.23077C2.46951 3.23077 3.18178 2.50754 3.18178 1.61538C3.18178 0.723232 2.46951 0 1.59089 0C0.712266 0 0 0.723232 0 1.61538C0 2.50754 0.712266 3.23077 1.59089 3.23077Z"
    fill="white"/>
  <path
    d="M10.4543 7.61512C9.45026 7.61512 8.63618 8.1542 8.63618 9.69205V14.9997H5.90894V5.30743H8.63618V6.32743H8.63545C8.97637 5.93386 9.39608 5.6187 9.86655 5.40301C10.337 5.18731 10.8474 5.07605 11.3636 5.07666C13.3718 5.07666 14.9999 6.59974 14.9999 9.23051V14.9997H12.2727V9.69205C12.2727 8.1542 11.4584 7.61512 10.4543 7.61512Z"
    fill="white"/>
</svg>
