<svg width="340" height="100" viewBox="0 0 340 100" fill="none" xmlns="http://www.w3.org/2000/svg">
<path d="M104.995 79V21.5455H127.662C132.02 21.5455 135.733 22.3777 138.8 24.0423C141.867 25.6881 144.205 27.9792 145.813 30.9155C147.44 33.8331 148.254 37.1996 148.254 41.0149C148.254 44.8303 147.431 48.1967 145.785 51.1143C144.139 54.032 141.755 56.3043 138.632 57.9315C135.527 59.5586 131.768 60.3722 127.354 60.3722H112.906V50.6374H125.39C127.728 50.6374 129.654 50.2353 131.169 49.4311C132.703 48.6082 133.844 47.4767 134.592 46.0366C135.359 44.5778 135.742 42.9039 135.742 41.0149C135.742 39.1072 135.359 37.4427 134.592 36.0213C133.844 34.5812 132.703 33.4684 131.169 32.6829C129.636 31.8787 127.69 31.4766 125.334 31.4766H117.142V79H104.995ZM167.05 79.8136C164.301 79.8136 161.851 79.3366 159.7 78.3828C157.549 77.4103 155.847 75.9795 154.594 74.0906C153.36 72.1829 152.743 69.8076 152.743 66.9648C152.743 64.5709 153.182 62.5604 154.061 60.9332C154.94 59.3061 156.137 57.9969 157.652 57.0057C159.167 56.0144 160.888 55.2663 162.814 54.7614C164.759 54.2564 166.798 53.901 168.93 53.6953C171.436 53.4335 173.456 53.1903 174.99 52.9659C176.523 52.7228 177.636 52.3674 178.328 51.8999C179.02 51.4323 179.366 50.7403 179.366 49.8239V49.6555C179.366 47.8788 178.805 46.5041 177.683 45.5316C176.579 44.5591 175.008 44.0728 172.97 44.0728C170.819 44.0728 169.108 44.5497 167.836 45.5036C166.564 46.4387 165.722 47.617 165.311 49.0384L154.258 48.1406C154.819 45.5223 155.922 43.2592 157.568 41.3516C159.214 39.4252 161.337 37.9477 163.936 36.919C166.555 35.8717 169.584 35.348 173.026 35.348C175.42 35.348 177.711 35.6286 179.899 36.1896C182.106 36.7507 184.06 37.6204 185.762 38.7986C187.483 39.9769 188.839 41.4918 189.83 43.3434C190.821 45.1763 191.317 47.3738 191.317 49.9361V79H179.983V73.0245H179.646C178.954 74.3711 178.029 75.5587 176.869 76.5874C175.71 77.5973 174.316 78.3922 172.689 78.9719C171.062 79.533 169.182 79.8136 167.05 79.8136ZM170.473 71.5657C172.231 71.5657 173.783 71.2197 175.13 70.5277C176.476 69.817 177.533 68.8632 178.3 67.6662C179.067 66.4692 179.45 65.1133 179.45 63.5984V59.0256C179.076 59.2687 178.562 59.4931 177.907 59.6989C177.271 59.8859 176.551 60.0636 175.747 60.2319C174.943 60.3815 174.139 60.5218 173.334 60.6527C172.53 60.7649 171.801 60.8678 171.146 60.9613C169.743 61.167 168.518 61.4943 167.471 61.9432C166.424 62.392 165.61 62.9999 165.03 63.7667C164.451 64.5148 164.161 65.4499 164.161 66.5721C164.161 68.1992 164.75 69.4429 165.928 70.3033C167.125 71.1449 168.64 71.5657 170.473 71.5657ZM220.002 96.0568C216.131 96.0568 212.811 95.5238 210.043 94.4577C207.294 93.4104 205.105 91.9796 203.478 90.1655C201.851 88.3513 200.794 86.3127 200.308 84.0497L211.361 82.5629C211.698 83.4232 212.231 84.2274 212.961 84.9755C213.69 85.7236 214.653 86.3221 215.85 86.771C217.066 87.2385 218.543 87.4723 220.283 87.4723C222.882 87.4723 225.024 86.8364 226.707 85.5646C228.409 84.3116 229.26 82.2075 229.26 79.2525V71.3693H228.755C228.231 72.5663 227.446 73.6978 226.398 74.7638C225.351 75.8299 224.004 76.6996 222.359 77.3729C220.713 78.0462 218.749 78.3828 216.467 78.3828C213.232 78.3828 210.286 77.6347 207.63 76.1385C204.993 74.6236 202.889 72.3138 201.318 69.2092C199.766 66.0858 198.99 62.1396 198.99 57.3704C198.99 52.489 199.785 48.4118 201.374 45.1388C202.964 41.8659 205.077 39.4158 207.714 37.7887C210.37 36.1616 213.279 35.348 216.439 35.348C218.852 35.348 220.872 35.7595 222.499 36.5824C224.126 37.3866 225.435 38.3965 226.426 39.6122C227.436 40.8092 228.213 41.9875 228.755 43.147H229.204V35.9091H241.071V79.4208C241.071 83.0865 240.173 86.1538 238.377 88.6225C236.582 91.0913 234.095 92.9428 230.915 94.1772C227.754 95.4303 224.117 96.0568 220.002 96.0568ZM220.255 69.4055C222.181 69.4055 223.808 68.9286 225.136 67.9748C226.483 67.0022 227.511 65.6183 228.222 63.8228C228.951 62.0086 229.316 59.8391 229.316 57.3143C229.316 54.7894 228.961 52.6012 228.25 50.7496C227.539 48.8794 226.511 47.4299 225.164 46.4013C223.817 45.3726 222.181 44.8583 220.255 44.8583C218.291 44.8583 216.636 45.3913 215.289 46.4574C213.942 47.5047 212.923 48.9635 212.231 50.8338C211.539 52.7041 211.193 54.8642 211.193 57.3143C211.193 59.8017 211.539 61.9525 212.231 63.7667C212.942 65.5621 213.961 66.9555 215.289 67.9467C216.636 68.9193 218.291 69.4055 220.255 69.4055ZM270.219 79.8416C265.786 79.8416 261.971 78.9439 258.773 77.1484C255.593 75.3343 253.143 72.772 251.423 69.4616C249.702 66.1326 248.842 62.1957 248.842 57.6509C248.842 53.2184 249.702 49.3282 251.423 45.9805C253.143 42.6327 255.565 40.0237 258.689 38.1534C261.831 36.2831 265.515 35.348 269.742 35.348C272.585 35.348 275.231 35.8062 277.681 36.7227C280.15 37.6204 282.301 38.9763 284.134 40.7905C285.985 42.6046 287.425 44.8864 288.454 47.6357C289.482 50.3662 289.997 53.5644 289.997 57.2301V60.5124H253.611V53.1062H278.747C278.747 51.3855 278.373 49.8613 277.625 48.5334C276.877 47.2055 275.839 46.1675 274.511 45.4194C273.202 44.6526 271.678 44.2692 269.938 44.2692C268.124 44.2692 266.516 44.69 265.113 45.5316C263.729 46.3545 262.644 47.4673 261.859 48.87C261.073 50.254 260.671 51.797 260.652 53.4989V60.5405C260.652 62.6726 261.045 64.5148 261.831 66.0671C262.635 67.6194 263.766 68.8164 265.225 69.658C266.684 70.4996 268.414 70.9205 270.415 70.9205C271.743 70.9205 272.959 70.7334 274.062 70.3594C275.166 69.9853 276.11 69.4242 276.896 68.6761C277.681 67.928 278.28 67.0116 278.691 65.9268L289.744 66.6562C289.183 69.312 288.033 71.6312 286.294 73.6136C284.573 75.5774 282.347 77.111 279.617 78.2145C276.905 79.2992 273.772 79.8416 270.219 79.8416ZM333.649 48.1967L322.708 48.87C322.521 47.9349 322.119 47.0933 321.501 46.3452C320.884 45.5784 320.071 44.9705 319.061 44.5217C318.069 44.0541 316.882 43.8203 315.498 43.8203C313.646 43.8203 312.085 44.2131 310.813 44.9986C309.541 45.7654 308.905 46.794 308.905 48.0845C308.905 49.1132 309.317 49.9828 310.14 50.6935C310.962 51.4042 312.375 51.9747 314.376 52.4048L322.175 53.9759C326.364 54.8362 329.487 56.2202 331.545 58.1278C333.602 60.0355 334.631 62.5417 334.631 65.6463C334.631 68.4704 333.798 70.9485 332.134 73.0806C330.488 75.2127 328.225 76.8772 325.345 78.0742C322.483 79.2525 319.182 79.8416 315.442 79.8416C309.737 79.8416 305.193 78.654 301.808 76.2788C298.441 73.8848 296.468 70.6306 295.888 66.516L307.643 65.8988C307.998 67.6381 308.858 68.966 310.224 69.8825C311.589 70.7802 313.338 71.229 315.47 71.229C317.564 71.229 319.248 70.8269 320.52 70.0227C321.81 69.1998 322.465 68.1431 322.483 66.8526C322.465 65.7679 322.006 64.8795 321.109 64.1875C320.211 63.4768 318.827 62.9344 316.957 62.5604L309.494 61.0735C305.286 60.2319 302.154 58.7731 300.096 56.6971C298.058 54.6211 297.038 51.9747 297.038 48.7578C297.038 45.9898 297.786 43.6052 299.283 41.604C300.798 39.6029 302.92 38.0599 305.651 36.9751C308.4 35.8904 311.617 35.348 315.301 35.348C320.744 35.348 325.027 36.4982 328.15 38.7986C331.292 41.0991 333.125 44.2318 333.649 48.1967Z" fill="#FFCA42"/>
<path d="M10.0833 73.4592H68.5526V10.9028H9.92193C4.52248 10.9208 0.149343 15.3355 0.131592 20.7864V78.3872H0.133206C0.133206 78.4116 0.131592 78.436 0.131592 78.4605C0.131592 84.2274 4.61446 89.0983 9.92193 89.0983H68.5526V83.8853H9.92193C7.50138 83.8853 5.29544 81.3 5.29544 78.4605C5.29544 75.7497 7.48847 73.4592 10.0833 73.4592ZM15.6231 16.1696H31.1147V44.3233L23.3044 37.4013L15.6231 44.2825V16.1696ZM5.29544 20.8271C5.28738 18.2369 7.35614 16.1305 9.92193 16.1159H10.4593V51.3038H15.5651L23.3237 44.3542L31.1631 51.3038H36.2786V16.1159H63.3888V68.2462H15.6361H10.4722H10.0833C8.40344 68.2462 6.75423 68.6893 5.29706 69.5299V20.8271H5.29544Z" fill="#FFCA42"/>
</svg>
