<svg width="129" height="38" viewBox="0 0 129 38" fill="none" xmlns="http://www.w3.org/2000/svg">
  <path
    d="M39.8963 30H44.5092V22.9261H48.3871C53.4048 22.9261 56.3239 19.9325 56.3239 15.5753C56.3239 11.2393 53.4581 8.18182 48.5043 8.18182H39.8963V30ZM44.5092 19.2294V11.9531H47.62C50.2834 11.9531 51.5724 13.402 51.5724 15.5753C51.5724 17.7379 50.2834 19.2294 47.6413 19.2294H44.5092ZM63.4616 30.3089C65.88 30.3089 67.446 29.2543 68.245 27.7308H68.3729V30H72.6768V18.9631C72.6768 15.0639 69.3743 13.4233 65.7308 13.4233C61.8104 13.4233 59.2322 15.2983 58.6037 18.2812L62.8011 18.6222C63.1101 17.5355 64.0795 16.7365 65.7095 16.7365C67.2543 16.7365 68.1385 17.5142 68.1385 18.8565V18.9205C68.1385 19.9751 67.0199 20.1136 64.1754 20.3906C60.9368 20.6889 58.0284 21.7756 58.0284 25.4297C58.0284 28.6683 60.3402 30.3089 63.4616 30.3089ZM64.7614 27.1768C63.3658 27.1768 62.3643 26.527 62.3643 25.2805C62.3643 24.0021 63.419 23.3736 65.017 23.1499C66.0078 23.0114 67.6271 22.777 68.1705 22.4148V24.1513C68.1705 25.8665 66.7536 27.1768 64.7614 27.1768ZM83.57 36.4773C88.2468 36.4773 91.5707 34.3466 91.5707 30.1598V13.6364H87.0643V16.3849H86.8938C86.2866 15.0533 84.9549 13.4233 82.217 13.4233C78.6268 13.4233 75.5906 16.2145 75.5906 21.7862C75.5906 27.2301 78.5415 29.7656 82.2276 29.7656C84.8377 29.7656 86.2972 28.4553 86.8938 27.1023H87.0856V30.0959C87.0856 32.3438 85.6474 33.2173 83.6765 33.2173C81.6737 33.2173 80.6616 32.3438 80.2887 31.353L76.0913 31.9176C76.6346 34.4957 79.1594 36.4773 83.57 36.4773ZM83.6658 26.3565C81.4393 26.3565 80.2248 24.5881 80.2248 21.7649C80.2248 18.9844 81.418 17.0348 83.6658 17.0348C85.8711 17.0348 87.1069 18.8991 87.1069 21.7649C87.1069 24.652 85.8498 26.3565 83.6658 26.3565ZM102.64 30.3196C106.688 30.3196 109.415 28.3487 110.054 25.3125L105.857 25.0355C105.399 26.282 104.227 26.9318 102.714 26.9318C100.445 26.9318 99.0067 25.4297 99.0067 22.9901V22.9794H110.15V21.733C110.15 16.1719 106.784 13.4233 102.458 13.4233C97.6431 13.4233 94.5217 16.843 94.5217 21.8928C94.5217 27.081 97.6005 30.3196 102.64 30.3196ZM99.0067 20.1669C99.1026 18.3026 100.52 16.8111 102.533 16.8111C104.504 16.8111 105.868 18.2173 105.878 20.1669H99.0067ZM126.727 18.3026C126.322 15.2876 123.893 13.4233 119.76 13.4233C115.573 13.4233 112.814 15.3622 112.824 18.5156C112.814 20.9659 114.358 22.5533 117.554 23.1925L120.388 23.7571C121.816 24.0447 122.466 24.5668 122.487 25.3871C122.466 26.3565 121.411 27.049 119.824 27.049C118.204 27.049 117.128 26.3565 116.851 25.0249L112.387 25.2592C112.814 28.3913 115.477 30.3196 119.813 30.3196C124.053 30.3196 127.089 28.157 127.1 24.929C127.089 22.5639 125.544 21.147 122.37 20.4972L119.408 19.9006C117.885 19.5703 117.32 19.0483 117.331 18.2599C117.32 17.2798 118.428 16.6406 119.834 16.6406C121.411 16.6406 122.348 17.5036 122.572 18.5582L126.727 18.3026Z"
    fill="white"/>
  <path
    d="M3.78165 27.9145H26V4.14307H3.72033C1.66854 4.14988 0.00674528 5.82749 0 7.89883V29.7871H0.000613208C0.000613208 29.7964 0 29.8057 0 29.815C0 32.0064 1.70349 33.8574 3.72033 33.8574H26V31.8764H3.72033C2.80052 31.8764 1.96226 30.894 1.96226 29.815C1.96226 28.7849 2.79561 27.9145 3.78165 27.9145ZM5.88679 6.14445H11.7736V16.8428L8.80566 14.2125L5.88679 16.8274V6.14445ZM1.96226 7.9143C1.9592 6.93002 2.74533 6.12959 3.72033 6.12402H3.92453H5.88679H3.92453V19.4954H5.86472L8.81302 16.8546L11.792 19.4954H13.7358V6.12402H24.0377V25.9335H5.8917H3.92943H3.78165C3.1433 25.9335 2.5166 26.1019 1.96288 26.4214V7.9143H1.96226Z"
    fill="#FFCA42"/>
</svg>
