<svg width="340" height="100" viewBox="0 0 340 100" fill="none" xmlns="http://www.w3.org/2000/svg">
<rect width="339.025" height="100" transform="translate(0.131592)" fill="#1B3764"/>
<path d="M49.5107 67.9688H93.6386V20.7563H49.3889C45.3139 20.7699 42.0134 24.1018 42 28.2157V71.688H42.0012C42.0012 71.7064 42 71.7249 42 71.7433C42 76.0957 45.3833 79.7719 49.3889 79.7719H93.6386V75.8375H49.3889C47.5621 75.8375 45.8973 73.8863 45.8973 71.7433C45.8973 69.6975 47.5524 67.9688 49.5107 67.9688ZM53.6918 24.7313H65.3835V45.9793L59.4889 40.7552L53.6918 45.9486V24.7313ZM45.8973 28.2464C45.8912 26.2915 47.4525 24.7018 49.3889 24.6907H49.7945V51.2477H53.6479L59.5035 46.0027L65.4201 51.2477H69.2808V24.6907H89.7413V64.0344H53.7015H49.8042H49.5107C48.2429 64.0344 46.9982 64.3688 45.8985 65.0033V28.2464H45.8973Z" fill="#FFCA42"/>
<path d="M120.661 72V28.3636H137.877C141.187 28.3636 144.006 28.9957 146.336 30.2599C148.665 31.5099 150.441 33.25 151.662 35.4801C152.898 37.696 153.516 40.2528 153.516 43.1506C153.516 46.0483 152.891 48.6051 151.641 50.821C150.391 53.0369 148.58 54.7628 146.208 55.9986C143.85 57.2344 140.995 57.8523 137.643 57.8523H126.67V50.4588H136.151C137.927 50.4588 139.39 50.1534 140.54 49.5426C141.705 48.9176 142.572 48.0582 143.14 46.9645C143.722 45.8565 144.013 44.5852 144.013 43.1506C144.013 41.7017 143.722 40.4375 143.14 39.358C142.572 38.2642 141.705 37.419 140.54 36.8224C139.376 36.2116 137.898 35.9062 136.108 35.9062H129.887V72H120.661ZM167.792 72.6179C165.704 72.6179 163.843 72.2557 162.209 71.5312C160.576 70.7926 159.283 69.706 158.331 68.2713C157.394 66.8224 156.925 65.0185 156.925 62.8594C156.925 61.0412 157.259 59.5142 157.927 58.2784C158.594 57.0426 159.503 56.0483 160.654 55.2955C161.804 54.5426 163.111 53.9744 164.574 53.5909C166.052 53.2074 167.6 52.9375 169.219 52.7812C171.123 52.5824 172.657 52.3977 173.822 52.2273C174.986 52.0426 175.831 51.7727 176.357 51.4176C176.883 51.0625 177.145 50.5369 177.145 49.8409V49.7131C177.145 48.3636 176.719 47.3196 175.867 46.581C175.029 45.8423 173.836 45.473 172.287 45.473C170.654 45.473 169.354 45.8352 168.388 46.5597C167.422 47.2699 166.783 48.1648 166.471 49.2443L158.076 48.5625C158.502 46.5739 159.34 44.8551 160.59 43.4062C161.84 41.9432 163.452 40.821 165.427 40.0398C167.415 39.2443 169.716 38.8466 172.33 38.8466C174.148 38.8466 175.888 39.0597 177.55 39.4858C179.226 39.9119 180.711 40.5724 182.003 41.4673C183.31 42.3622 184.34 43.5128 185.093 44.919C185.846 46.3111 186.222 47.9801 186.222 49.9261V72H177.614V67.4616H177.358C176.833 68.4844 176.13 69.3864 175.249 70.1676C174.368 70.9347 173.31 71.5384 172.074 71.9787C170.839 72.4048 169.411 72.6179 167.792 72.6179ZM170.391 66.3537C171.726 66.3537 172.905 66.0909 173.928 65.5653C174.951 65.0256 175.753 64.3011 176.336 63.392C176.918 62.483 177.209 61.4531 177.209 60.3026V56.8295C176.925 57.0142 176.535 57.1847 176.037 57.3409C175.554 57.483 175.008 57.6179 174.397 57.7457C173.786 57.8594 173.175 57.9659 172.564 58.0653C171.954 58.1506 171.4 58.2287 170.902 58.2997C169.837 58.456 168.907 58.7045 168.111 59.0455C167.316 59.3864 166.698 59.848 166.258 60.4304C165.817 60.9986 165.597 61.7088 165.597 62.5611C165.597 63.7969 166.045 64.7415 166.939 65.3949C167.849 66.0341 168.999 66.3537 170.391 66.3537ZM208.008 84.9545C205.068 84.9545 202.547 84.5497 200.444 83.7401C198.356 82.9446 196.694 81.858 195.459 80.4801C194.223 79.1023 193.42 77.554 193.051 75.8352L201.446 74.706C201.702 75.3594 202.106 75.9702 202.66 76.5384C203.214 77.1065 203.946 77.5611 204.855 77.902C205.778 78.2571 206.9 78.4347 208.221 78.4347C210.196 78.4347 211.822 77.9517 213.101 76.9858C214.393 76.0341 215.04 74.4361 215.04 72.1918V66.2045H214.656C214.258 67.1136 213.662 67.973 212.866 68.7827C212.071 69.5923 211.048 70.2528 209.798 70.7642C208.548 71.2756 207.057 71.5312 205.324 71.5312C202.866 71.5312 200.629 70.9631 198.612 69.8267C196.609 68.6761 195.011 66.9219 193.818 64.5639C192.639 62.1918 192.05 59.1946 192.05 55.5724C192.05 51.8651 192.653 48.7685 193.861 46.2827C195.068 43.7969 196.673 41.9361 198.676 40.7003C200.693 39.4645 202.902 38.8466 205.302 38.8466C207.135 38.8466 208.669 39.1591 209.905 39.7841C211.14 40.3949 212.135 41.1619 212.888 42.0852C213.655 42.9943 214.244 43.8892 214.656 44.7699H214.997V39.2727H224.01V72.3196C224.01 75.1037 223.328 77.4332 221.964 79.3082C220.601 81.1832 218.711 82.5895 216.297 83.527C213.896 84.4787 211.133 84.9545 208.008 84.9545ZM208.2 64.7131C209.663 64.7131 210.899 64.3509 211.907 63.6264C212.93 62.8878 213.711 61.8366 214.251 60.473C214.805 59.0952 215.082 57.4474 215.082 55.5298C215.082 53.6122 214.812 51.9503 214.273 50.544C213.733 49.1236 212.952 48.0227 211.929 47.2415C210.906 46.4602 209.663 46.0696 208.2 46.0696C206.709 46.0696 205.452 46.4744 204.429 47.2841C203.406 48.0795 202.632 49.1875 202.106 50.608C201.581 52.0284 201.318 53.669 201.318 55.5298C201.318 57.419 201.581 59.0526 202.106 60.4304C202.646 61.794 203.42 62.8523 204.429 63.6051C205.452 64.3437 206.709 64.7131 208.2 64.7131ZM246.148 72.6392C242.781 72.6392 239.883 71.9574 237.454 70.5938C235.04 69.2159 233.179 67.2699 231.872 64.7557C230.565 62.2273 229.912 59.2372 229.912 55.7855C229.912 52.419 230.565 49.4645 231.872 46.9219C233.179 44.3793 235.018 42.3977 237.39 40.9773C239.777 39.5568 242.575 38.8466 245.785 38.8466C247.944 38.8466 249.954 39.1946 251.815 39.8906C253.69 40.5724 255.324 41.6023 256.716 42.9801C258.122 44.358 259.216 46.0909 259.997 48.179C260.778 50.2528 261.169 52.6818 261.169 55.4659V57.9588H233.534V52.3338H252.625C252.625 51.027 252.341 49.8693 251.773 48.8608C251.204 47.8523 250.416 47.0639 249.407 46.4957C248.413 45.9134 247.255 45.6222 245.934 45.6222C244.557 45.6222 243.335 45.9418 242.27 46.581C241.219 47.206 240.395 48.0511 239.798 49.1165C239.202 50.1676 238.896 51.3395 238.882 52.6321V57.9801C238.882 59.5994 239.18 60.9986 239.777 62.1776C240.388 63.3565 241.247 64.2656 242.355 64.9048C243.463 65.544 244.777 65.8636 246.297 65.8636C247.305 65.8636 248.228 65.7216 249.067 65.4375C249.905 65.1534 250.622 64.7273 251.219 64.1591C251.815 63.5909 252.27 62.8949 252.582 62.071L260.977 62.625C260.551 64.642 259.677 66.4034 258.356 67.9091C257.05 69.4006 255.359 70.5653 253.285 71.4034C251.226 72.2273 248.846 72.6392 246.148 72.6392ZM294.322 48.6051L286.013 49.1165C285.871 48.4062 285.565 47.767 285.096 47.1989C284.628 46.6165 284.01 46.1548 283.243 45.8139C282.49 45.4588 281.588 45.2812 280.537 45.2812C279.13 45.2812 277.944 45.5795 276.978 46.1761C276.013 46.7585 275.53 47.5398 275.53 48.5199C275.53 49.3011 275.842 49.9616 276.467 50.5014C277.092 51.0412 278.165 51.4744 279.684 51.8011L285.608 52.9943C288.79 53.6477 291.162 54.6989 292.724 56.1477C294.287 57.5966 295.068 59.5 295.068 61.858C295.068 64.0028 294.436 65.8849 293.172 67.5043C291.922 69.1236 290.203 70.3878 288.015 71.2969C285.842 72.1918 283.335 72.6392 280.494 72.6392C276.162 72.6392 272.71 71.7372 270.139 69.9332C267.582 68.1151 266.084 65.6435 265.643 62.5185L274.571 62.0497C274.841 63.3707 275.494 64.3793 276.531 65.0753C277.568 65.7571 278.896 66.098 280.515 66.098C282.106 66.098 283.385 65.7926 284.351 65.1818C285.331 64.5568 285.828 63.7543 285.842 62.7741C285.828 61.9503 285.48 61.2756 284.798 60.75C284.116 60.2102 283.065 59.7983 281.645 59.5142L275.977 58.3849C272.781 57.7457 270.402 56.6378 268.839 55.0611C267.291 53.4844 266.517 51.4744 266.517 49.0312C266.517 46.929 267.085 45.1179 268.221 43.598C269.372 42.0781 270.984 40.9062 273.058 40.0824C275.146 39.2585 277.589 38.8466 280.388 38.8466C284.521 38.8466 287.774 39.7202 290.146 41.4673C292.532 43.2145 293.925 45.5937 294.322 48.6051Z" fill="#FFCA42"/>
</svg>
