<svg width="15" height="15" viewBox="0 0 15 15" fill="none" xmlns="http://www.w3.org/2000/svg">
  <path
    d="M15 2.848C14.4478 3.09267 13.8554 3.2586 13.2329 3.33265C13.8685 2.95205 14.356 2.34834 14.5857 1.63026C13.9913 1.98274 13.3323 2.23866 12.6311 2.3774C12.0696 1.77931 11.2699 1.40527 10.385 1.40527C8.6854 1.40527 7.30736 2.78331 7.30736 4.48196C7.30736 4.72288 7.33454 4.95818 7.38704 5.18316C4.8297 5.05473 2.56203 3.8295 1.04431 1.96774C0.779951 2.4224 0.628086 2.95111 0.628086 3.51545C0.628086 4.5832 1.17086 5.52533 1.99675 6.07654C1.49334 6.06061 1.019 5.92187 0.603712 5.69126V5.72969C0.603712 7.22022 1.6649 8.46421 3.072 8.74732C2.81326 8.81762 2.5414 8.85606 2.26111 8.85606C2.06237 8.85606 1.8702 8.83637 1.68177 8.80075C2.07362 10.0232 3.2098 10.9128 4.55597 10.9381C3.50322 11.7631 2.1758 12.2552 0.734017 12.2552C0.485595 12.2552 0.240922 12.2402 0 12.2121C1.3621 13.0849 2.97919 13.5948 4.71721 13.5948C10.3775 13.5948 13.4729 8.90574 13.4729 4.83912C13.4729 4.706 13.4701 4.57289 13.4635 4.44071C14.0654 4.00667 14.5875 3.46483 15 2.848Z"
    fill="white"/>
</svg>
